<svg xmlns="http://www.w3.org/2000/svg" width="520" height="112" viewBox="0 0 520 112" role="img" aria-labelledby="escrowTitle escrowDesc">
  <title id="escrowTitle">Escrow.com</title>
  <desc id="escrowDesc">Escrow secure transfer badge for domain transactions</desc>
  <defs>
    <linearGradient id="frame" x1="0" y1="0" x2="1" y2="1">
      <stop offset="0%" stop-color="#f4f9ff"/>
      <stop offset="100%" stop-color="#e6f0fb"/>
    </linearGradient>
    <linearGradient id="word" x1="0" y1="0" x2="1" y2="0">
      <stop offset="0%" stop-color="#0f2138"/>
      <stop offset="60%" stop-color="#8ab1cd"/>
      <stop offset="100%" stop-color="#2f4f6f"/>
    </linearGradient>
    <linearGradient id="shield" x1="0" y1="0" x2="1" y2="1">
      <stop offset="0%" stop-color="#0f243f"/>
      <stop offset="100%" stop-color="#6f9dbf"/>
    </linearGradient>
    <filter id="soft" x="-20%" y="-20%" width="140%" height="140%">
      <feDropShadow dx="0" dy="2" stdDeviation="3" flood-color="#1e3554" flood-opacity="0.15"/>
    </filter>
  </defs>

  <rect x="2" y="2" width="516" height="108" rx="20" fill="url(#frame)" stroke="#c9dced"/>

  <g transform="translate(18 16)" filter="url(#soft)">
    <rect width="80" height="80" rx="18" fill="#ffffff" stroke="#ccdeef"/>
    <path d="M40 9 63 18v13.1C63 49 51.5 61 40 66.4 28.5 61 17 49 17 31.1V18L40 9Z" fill="url(#shield)"/>
    <path d="M40 23a8 8 0 0 0-8 8v3.8h-2.3a1.8 1.8 0 0 0-1.8 1.8V45a1.8 1.8 0 0 0 1.8 1.8h20.6A1.8 1.8 0 0 0 52 45v-8.4a1.8 1.8 0 0 0-1.8-1.8H48V31a8 8 0 0 0-8-8Zm4.8 11.8h-9.6V31a4.8 4.8 0 0 1 9.6 0v3.8Z" fill="#f4f9ff"/>
  </g>

  <text x="112" y="52" fill="url(#word)" font-family="'Plus Jakarta Sans', 'Segoe UI', Arial, sans-serif" font-size="34" font-weight="800" letter-spacing="0.02em">ESCROW.COM</text>
  <text x="112" y="76" fill="#5f7894" font-family="'Plus Jakarta Sans', 'Segoe UI', Arial, sans-serif" font-size="12" font-weight="700" letter-spacing="0.1em">SECURE DOMAIN TRANSFER</text>
</svg>
